<svg xmlns="http://www.w3.org/2000/svg" viewBox="-65 39 65 532">
<line x1="-65" y1="171" x2="0" y2="237" stroke="black" />
<line x1="0" y1="237" x2="0" y2="230" stroke="black" />
<line x1="0" y1="230" x2="-65" y2="164" stroke="black" />
<line x1="-65" y1="164" x2="-65" y2="171" stroke="black" />
<line x1="-65" y1="105" x2="0" y2="171" stroke="black" />
<line x1="0" y1="171" x2="0" y2="164" stroke="black" />
<line x1="0" y1="164" x2="-65" y2="98" stroke="black" />
<line x1="-65" y1="98" x2="-65" y2="105" stroke="black" />
<line x1="-65" y1="304" x2="0" y2="370" stroke="black" />
<line x1="0" y1="370" x2="0" y2="363" stroke="black" />
<line x1="0" y1="363" x2="-65" y2="297" stroke="black" />
<line x1="-65" y1="297" x2="-65" y2="304" stroke="black" />
<line x1="-65" y1="238" x2="0" y2="304" stroke="black" />
<line x1="0" y1="304" x2="0" y2="297" stroke="black" />
<line x1="0" y1="297" x2="-65" y2="231" stroke="black" />
<line x1="-65" y1="231" x2="-65" y2="238" stroke="black" />
<line x1="-65" y1="437" x2="0" y2="503" stroke="black" />
<line x1="0" y1="503" x2="0" y2="496" stroke="black" />
<line x1="0" y1="496" x2="-65" y2="430" stroke="black" />
<line x1="-65" y1="430" x2="-65" y2="437" stroke="black" />
<line x1="-65" y1="371" x2="0" y2="437" stroke="black" />
<line x1="0" y1="437" x2="0" y2="430" stroke="black" />
<line x1="0" y1="430" x2="-65" y2="364" stroke="black" />
<line x1="-65" y1="364" x2="-65" y2="371" stroke="black" />
<line x1="-65" y1="570" x2="-64" y2="571" stroke="black" />
<line x1="-64" y1="571" x2="-57" y2="571" stroke="black" />
<line x1="-57" y1="571" x2="-65" y2="563" stroke="black" />
<line x1="-65" y1="563" x2="-65" y2="570" stroke="black" />
<line x1="-65" y1="504" x2="0" y2="570" stroke="black" />
<line x1="0" y1="570" x2="0" y2="563" stroke="black" />
<line x1="0" y1="563" x2="-65" y2="497" stroke="black" />
<line x1="-65" y1="497" x2="-65" y2="504" stroke="black" />
<line x1="-64" y1="39" x2="0" y2="104" stroke="black" />
<line x1="0" y1="104" x2="0" y2="97" stroke="black" />
<line x1="0" y1="97" x2="-57" y2="39" stroke="black" />
<line x1="-57" y1="39" x2="-64" y2="39" stroke="black" />
</svg>