<svg xmlns="http://www.w3.org/2000/svg" viewBox="-65 305 131 266">
<line x1="-64" y1="305" x2="66" y2="437" stroke="black" />
<line x1="66" y1="437" x2="66" y2="430" stroke="black" />
<line x1="66" y1="430" x2="-57" y2="305" stroke="black" />
<line x1="-57" y1="305" x2="-64" y2="305" stroke="black" />
<line x1="1" y1="305" x2="66" y2="371" stroke="black" />
<line x1="66" y1="371" x2="66" y2="364" stroke="black" />
<line x1="66" y1="364" x2="8" y2="305" stroke="black" />
<line x1="8" y1="305" x2="1" y2="305" stroke="black" />
<line x1="-65" y1="437" x2="66" y2="570" stroke="black" />
<line x1="66" y1="570" x2="66" y2="563" stroke="black" />
<line x1="66" y1="563" x2="-65" y2="430" stroke="black" />
<line x1="-65" y1="430" x2="-65" y2="437" stroke="black" />
<line x1="-65" y1="371" x2="66" y2="504" stroke="black" />
<line x1="66" y1="504" x2="66" y2="497" stroke="black" />
<line x1="66" y1="497" x2="-65" y2="364" stroke="black" />
<line x1="-65" y1="364" x2="-65" y2="371" stroke="black" />
<line x1="-65" y1="570" x2="-64" y2="571" stroke="black" />
<line x1="-64" y1="571" x2="-57" y2="571" stroke="black" />
<line x1="-57" y1="571" x2="-65" y2="563" stroke="black" />
<line x1="-65" y1="563" x2="-65" y2="570" stroke="black" />
<line x1="-65" y1="504" x2="1" y2="571" stroke="black" />
<line x1="1" y1="571" x2="8" y2="571" stroke="black" />
<line x1="8" y1="571" x2="-65" y2="497" stroke="black" />
<line x1="-65" y1="497" x2="-65" y2="504" stroke="black" />
</svg>