<svg xmlns="http://www.w3.org/2000/svg" viewBox="-393 105 786 67">
<line x1="-393" y1="171" x2="-392" y2="172" stroke="black" />
<line x1="-392" y1="172" x2="-385" y2="172" stroke="black" />
<line x1="-385" y1="172" x2="-393" y2="164" stroke="black" />
<line x1="-393" y1="164" x2="-393" y2="171" stroke="black" />
<line x1="-393" y1="105" x2="-327" y2="172" stroke="black" />
<line x1="-327" y1="172" x2="-320" y2="172" stroke="black" />
<line x1="-320" y1="172" x2="-386" y2="105" stroke="black" />
<line x1="-386" y1="105" x2="-393" y2="105" stroke="black" />
<line x1="-327" y1="105" x2="-261" y2="172" stroke="black" />
<line x1="-261" y1="172" x2="-254" y2="172" stroke="black" />
<line x1="-254" y1="172" x2="-320" y2="105" stroke="black" />
<line x1="-320" y1="105" x2="-327" y2="105" stroke="black" />
<line x1="-262" y1="105" x2="-196" y2="172" stroke="black" />
<line x1="-196" y1="172" x2="-189" y2="172" stroke="black" />
<line x1="-189" y1="172" x2="-255" y2="105" stroke="black" />
<line x1="-255" y1="105" x2="-262" y2="105" stroke="black" />
<line x1="-196" y1="105" x2="-130" y2="172" stroke="black" />
<line x1="-130" y1="172" x2="-123" y2="172" stroke="black" />
<line x1="-123" y1="172" x2="-189" y2="105" stroke="black" />
<line x1="-189" y1="105" x2="-196" y2="105" stroke="black" />
<line x1="-131" y1="105" x2="-65" y2="172" stroke="black" />
<line x1="-65" y1="172" x2="-58" y2="172" stroke="black" />
<line x1="-58" y1="172" x2="-124" y2="105" stroke="black" />
<line x1="-124" y1="105" x2="-131" y2="105" stroke="black" />
<line x1="-65" y1="105" x2="1" y2="172" stroke="black" />
<line x1="1" y1="172" x2="8" y2="172" stroke="black" />
<line x1="8" y1="172" x2="-58" y2="105" stroke="black" />
<line x1="-58" y1="105" x2="-65" y2="105" stroke="black" />
<line x1="0" y1="105" x2="66" y2="172" stroke="black" />
<line x1="66" y1="172" x2="73" y2="172" stroke="black" />
<line x1="73" y1="172" x2="7" y2="105" stroke="black" />
<line x1="7" y1="105" x2="0" y2="105" stroke="black" />
<line x1="66" y1="105" x2="132" y2="172" stroke="black" />
<line x1="132" y1="172" x2="139" y2="172" stroke="black" />
<line x1="139" y1="172" x2="73" y2="105" stroke="black" />
<line x1="73" y1="105" x2="66" y2="105" stroke="black" />
<line x1="131" y1="105" x2="197" y2="172" stroke="black" />
<line x1="197" y1="172" x2="204" y2="172" stroke="black" />
<line x1="204" y1="172" x2="138" y2="105" stroke="black" />
<line x1="138" y1="105" x2="131" y2="105" stroke="black" />
<line x1="197" y1="105" x2="263" y2="172" stroke="black" />
<line x1="263" y1="172" x2="270" y2="172" stroke="black" />
<line x1="270" y1="172" x2="204" y2="105" stroke="black" />
<line x1="204" y1="105" x2="197" y2="105" stroke="black" />
<line x1="262" y1="105" x2="328" y2="172" stroke="black" />
<line x1="328" y1="172" x2="335" y2="172" stroke="black" />
<line x1="335" y1="172" x2="269" y2="105" stroke="black" />
<line x1="269" y1="105" x2="262" y2="105" stroke="black" />
<line x1="328" y1="105" x2="393" y2="171" stroke="black" />
<line x1="393" y1="171" x2="393" y2="164" stroke="black" />
<line x1="393" y1="164" x2="335" y2="105" stroke="black" />
<line x1="335" y1="105" x2="328" y2="105" stroke="black" />
</svg>