<svg xmlns="http://www.w3.org/2000/svg" viewBox="-458 438 458 399">
<line x1="-195" y1="438" x2="0" y2="636" stroke="black" />
<line x1="0" y1="636" x2="0" y2="629" stroke="black" />
<line x1="0" y1="629" x2="-188" y2="438" stroke="black" />
<line x1="-188" y1="438" x2="-195" y2="438" stroke="black" />
<line x1="-130" y1="438" x2="0" y2="570" stroke="black" />
<line x1="0" y1="570" x2="0" y2="563" stroke="black" />
<line x1="0" y1="563" x2="-123" y2="438" stroke="black" />
<line x1="-123" y1="438" x2="-130" y2="438" stroke="black" />
<line x1="-326" y1="438" x2="0" y2="769" stroke="black" />
<line x1="0" y1="769" x2="0" y2="762" stroke="black" />
<line x1="0" y1="762" x2="-319" y2="438" stroke="black" />
<line x1="-319" y1="438" x2="-326" y2="438" stroke="black" />
<line x1="-261" y1="438" x2="0" y2="703" stroke="black" />
<line x1="0" y1="703" x2="0" y2="696" stroke="black" />
<line x1="0" y1="696" x2="-254" y2="438" stroke="black" />
<line x1="-254" y1="438" x2="-261" y2="438" stroke="black" />
<line x1="-457" y1="438" x2="-64" y2="837" stroke="black" />
<line x1="-64" y1="837" x2="-57" y2="837" stroke="black" />
<line x1="-57" y1="837" x2="-450" y2="438" stroke="black" />
<line x1="-450" y1="438" x2="-457" y2="438" stroke="black" />
<line x1="-392" y1="438" x2="0" y2="836" stroke="black" />
<line x1="0" y1="836" x2="0" y2="829" stroke="black" />
<line x1="0" y1="829" x2="-385" y2="438" stroke="black" />
<line x1="-385" y1="438" x2="-392" y2="438" stroke="black" />
<line x1="-458" y1="570" x2="-195" y2="837" stroke="black" />
<line x1="-195" y1="837" x2="-188" y2="837" stroke="black" />
<line x1="-188" y1="837" x2="-458" y2="563" stroke="black" />
<line x1="-458" y1="563" x2="-458" y2="570" stroke="black" />
<line x1="-458" y1="504" x2="-130" y2="837" stroke="black" />
<line x1="-130" y1="837" x2="-123" y2="837" stroke="black" />
<line x1="-123" y1="837" x2="-458" y2="497" stroke="black" />
<line x1="-458" y1="497" x2="-458" y2="504" stroke="black" />
<line x1="-458" y1="703" x2="-326" y2="837" stroke="black" />
<line x1="-326" y1="837" x2="-319" y2="837" stroke="black" />
<line x1="-319" y1="837" x2="-458" y2="696" stroke="black" />
<line x1="-458" y1="696" x2="-458" y2="703" stroke="black" />
<line x1="-458" y1="637" x2="-261" y2="837" stroke="black" />
<line x1="-261" y1="837" x2="-254" y2="837" stroke="black" />
<line x1="-254" y1="837" x2="-458" y2="630" stroke="black" />
<line x1="-458" y1="630" x2="-458" y2="637" stroke="black" />
<line x1="-458" y1="836" x2="-457" y2="837" stroke="black" />
<line x1="-457" y1="837" x2="-450" y2="837" stroke="black" />
<line x1="-450" y1="837" x2="-458" y2="829" stroke="black" />
<line x1="-458" y1="829" x2="-458" y2="836" stroke="black" />
<line x1="-458" y1="770" x2="-392" y2="837" stroke="black" />
<line x1="-392" y1="837" x2="-385" y2="837" stroke="black" />
<line x1="-385" y1="837" x2="-458" y2="763" stroke="black" />
<line x1="-458" y1="763" x2="-458" y2="770" stroke="black" />
<line x1="-64" y1="438" x2="0" y2="503" stroke="black" />
<line x1="0" y1="503" x2="0" y2="496" stroke="black" />
<line x1="0" y1="496" x2="-57" y2="438" stroke="black" />
<line x1="-57" y1="438" x2="-64" y2="438" stroke="black" />
</svg>