<svg xmlns="http://www.w3.org/2000/svg" viewBox="-131 305 131 266">
<line x1="-130" y1="305" x2="0" y2="437" stroke="black" />
<line x1="0" y1="437" x2="0" y2="430" stroke="black" />
<line x1="0" y1="430" x2="-123" y2="305" stroke="black" />
<line x1="-123" y1="305" x2="-130" y2="305" stroke="black" />
<line x1="-65" y1="305" x2="0" y2="371" stroke="black" />
<line x1="0" y1="371" x2="0" y2="364" stroke="black" />
<line x1="0" y1="364" x2="-58" y2="305" stroke="black" />
<line x1="-58" y1="305" x2="-65" y2="305" stroke="black" />
<line x1="-131" y1="437" x2="0" y2="570" stroke="black" />
<line x1="0" y1="570" x2="0" y2="563" stroke="black" />
<line x1="0" y1="563" x2="-131" y2="430" stroke="black" />
<line x1="-131" y1="430" x2="-131" y2="437" stroke="black" />
<line x1="-131" y1="371" x2="0" y2="504" stroke="black" />
<line x1="0" y1="504" x2="0" y2="497" stroke="black" />
<line x1="0" y1="497" x2="-131" y2="364" stroke="black" />
<line x1="-131" y1="364" x2="-131" y2="371" stroke="black" />
<line x1="-131" y1="570" x2="-130" y2="571" stroke="black" />
<line x1="-130" y1="571" x2="-123" y2="571" stroke="black" />
<line x1="-123" y1="571" x2="-131" y2="563" stroke="black" />
<line x1="-131" y1="563" x2="-131" y2="570" stroke="black" />
<line x1="-131" y1="504" x2="-65" y2="571" stroke="black" />
<line x1="-65" y1="571" x2="-58" y2="571" stroke="black" />
<line x1="-58" y1="571" x2="-131" y2="497" stroke="black" />
<line x1="-131" y1="497" x2="-131" y2="504" stroke="black" />
</svg>