<svg xmlns="http://www.w3.org/2000/svg" viewBox="0 39 459 66">
<line x1="0" y1="104" x2="1" y2="105" stroke="black" />
<line x1="1" y1="105" x2="8" y2="105" stroke="black" />
<line x1="8" y1="105" x2="0" y2="97" stroke="black" />
<line x1="0" y1="97" x2="0" y2="104" stroke="black" />
<line x1="1" y1="39" x2="66" y2="105" stroke="black" />
<line x1="66" y1="105" x2="73" y2="105" stroke="black" />
<line x1="73" y1="105" x2="8" y2="39" stroke="black" />
<line x1="8" y1="39" x2="1" y2="39" stroke="black" />
<line x1="67" y1="39" x2="132" y2="105" stroke="black" />
<line x1="132" y1="105" x2="139" y2="105" stroke="black" />
<line x1="139" y1="105" x2="74" y2="39" stroke="black" />
<line x1="74" y1="39" x2="67" y2="39" stroke="black" />
<line x1="132" y1="39" x2="197" y2="105" stroke="black" />
<line x1="197" y1="105" x2="204" y2="105" stroke="black" />
<line x1="204" y1="105" x2="139" y2="39" stroke="black" />
<line x1="139" y1="39" x2="132" y2="39" stroke="black" />
<line x1="198" y1="39" x2="263" y2="105" stroke="black" />
<line x1="263" y1="105" x2="270" y2="105" stroke="black" />
<line x1="270" y1="105" x2="205" y2="39" stroke="black" />
<line x1="205" y1="39" x2="198" y2="39" stroke="black" />
<line x1="263" y1="39" x2="328" y2="105" stroke="black" />
<line x1="328" y1="105" x2="335" y2="105" stroke="black" />
<line x1="335" y1="105" x2="270" y2="39" stroke="black" />
<line x1="270" y1="39" x2="263" y2="39" stroke="black" />
<line x1="329" y1="39" x2="394" y2="105" stroke="black" />
<line x1="394" y1="105" x2="401" y2="105" stroke="black" />
<line x1="401" y1="105" x2="336" y2="39" stroke="black" />
<line x1="336" y1="39" x2="329" y2="39" stroke="black" />
<line x1="394" y1="39" x2="459" y2="105" stroke="black" />
<line x1="459" y1="105" x2="459" y2="98" stroke="black" />
<line x1="459" y1="98" x2="401" y2="39" stroke="black" />
<line x1="401" y1="39" x2="394" y2="39" stroke="black" />
</svg>