<svg xmlns="http://www.w3.org/2000/svg" viewBox="-16 -23 318 954">
<line x1="302" y1="-23" x2="302" y2="64" stroke="black" />
<line x1="302" y1="64" x2="277" y2="64" stroke="black" />
<line x1="277" y1="64" x2="277" y2="122" stroke="black" />
<line x1="277" y1="122" x2="302" y2="122" stroke="black" />
<line x1="302" y1="122" x2="302" y2="209" stroke="black" />
<line x1="302" y1="209" x2="277" y2="209" stroke="black" />
<line x1="277" y1="209" x2="277" y2="267" stroke="black" />
<line x1="277" y1="267" x2="302" y2="267" stroke="black" />
<line x1="302" y1="267" x2="302" y2="354" stroke="black" />
<line x1="302" y1="354" x2="277" y2="354" stroke="black" />
<line x1="277" y1="354" x2="277" y2="412" stroke="black" />
<line x1="277" y1="412" x2="302" y2="412" stroke="black" />
<line x1="302" y1="412" x2="302" y2="499" stroke="black" />
<line x1="302" y1="499" x2="277" y2="499" stroke="black" />
<line x1="277" y1="499" x2="277" y2="557" stroke="black" />
<line x1="277" y1="557" x2="302" y2="557" stroke="black" />
<line x1="302" y1="557" x2="302" y2="644" stroke="black" />
<line x1="302" y1="644" x2="277" y2="644" stroke="black" />
<line x1="277" y1="644" x2="277" y2="702" stroke="black" />
<line x1="277" y1="702" x2="302" y2="702" stroke="black" />
<line x1="302" y1="702" x2="302" y2="789" stroke="black" />
<line x1="302" y1="789" x2="277" y2="789" stroke="black" />
<line x1="277" y1="789" x2="277" y2="847" stroke="black" />
<line x1="277" y1="847" x2="302" y2="847" stroke="black" />
<line x1="302" y1="847" x2="302" y2="931" stroke="black" />
<line x1="302" y1="931" x2="157" y2="931" stroke="black" />
<line x1="157" y1="931" x2="157" y2="906" stroke="black" />
<line x1="157" y1="906" x2="105" y2="906" stroke="black" />
<line x1="105" y1="906" x2="105" y2="931" stroke="black" />
<line x1="105" y1="931" x2="26" y2="931" stroke="black" />
<line x1="26" y1="931" x2="26" y2="906" stroke="black" />
<line x1="26" y1="906" x2="-16" y2="906" stroke="black" />
<line x1="-16" y1="906" x2="-16" y2="886" stroke="black" />
<line x1="-16" y1="886" x2="257" y2="886" stroke="black" />
<line x1="257" y1="886" x2="257" y2="22" stroke="black" />
<line x1="257" y1="22" x2="-16" y2="22" stroke="black" />
<line x1="-16" y1="22" x2="-16" y2="2" stroke="black" />
<line x1="-16" y1="2" x2="26" y2="2" stroke="black" />
<line x1="26" y1="2" x2="26" y2="-23" stroke="black" />
<line x1="26" y1="-23" x2="104" y2="-23" stroke="black" />
<line x1="104" y1="-23" x2="104" y2="2" stroke="black" />
<line x1="104" y1="2" x2="156" y2="2" stroke="black" />
<line x1="156" y1="2" x2="156" y2="-23" stroke="black" />
<line x1="156" y1="-23" x2="302" y2="-23" stroke="black" />
</svg>