<svg xmlns="http://www.w3.org/2000/svg" viewBox="-16 -77 741 1062">
<line x1="-16" y1="985" x2="725" y2="985" stroke="black" />
<line x1="725" y1="985" x2="725" y2="952" stroke="black" />
<line x1="725" y1="952" x2="345" y2="952" stroke="black" />
<line x1="345" y1="952" x2="345" y2="813" stroke="black" />
<line x1="345" y1="813" x2="725" y2="813" stroke="black" />
<line x1="725" y1="813" x2="725" y2="780" stroke="black" />
<line x1="725" y1="780" x2="345" y2="780" stroke="black" />
<line x1="345" y1="780" x2="345" y2="641" stroke="black" />
<line x1="345" y1="641" x2="725" y2="641" stroke="black" />
<line x1="725" y1="641" x2="725" y2="608" stroke="black" />
<line x1="725" y1="608" x2="345" y2="608" stroke="black" />
<line x1="345" y1="608" x2="345" y2="469" stroke="black" />
<line x1="345" y1="469" x2="725" y2="469" stroke="black" />
<line x1="725" y1="469" x2="725" y2="436" stroke="black" />
<line x1="725" y1="436" x2="345" y2="436" stroke="black" />
<line x1="345" y1="436" x2="345" y2="298" stroke="black" />
<line x1="345" y1="298" x2="725" y2="298" stroke="black" />
<line x1="725" y1="298" x2="725" y2="265" stroke="black" />
<line x1="725" y1="265" x2="345" y2="265" stroke="black" />
<line x1="345" y1="265" x2="345" y2="127" stroke="black" />
<line x1="345" y1="127" x2="725" y2="127" stroke="black" />
<line x1="725" y1="127" x2="725" y2="94" stroke="black" />
<line x1="725" y1="94" x2="345" y2="94" stroke="black" />
<line x1="345" y1="94" x2="345" y2="-44" stroke="black" />
<line x1="345" y1="-44" x2="725" y2="-44" stroke="black" />
<line x1="725" y1="-44" x2="725" y2="-77" stroke="black" />
<line x1="725" y1="-77" x2="-16" y2="-77" stroke="black" />
<line x1="-16" y1="-77" x2="-16" y2="-44" stroke="black" />
<line x1="-16" y1="-44" x2="0" y2="-44" stroke="black" />
<line x1="0" y1="-44" x2="0" y2="952" stroke="black" />
<line x1="0" y1="952" x2="-16" y2="952" stroke="black" />
<line x1="-16" y1="952" x2="-16" y2="985" stroke="black" />
<line x1="106" y1="-44" x2="106" y2="952" stroke="black" />
<line x1="106" y1="952" x2="33" y2="952" stroke="black" />
<line x1="33" y1="952" x2="33" y2="-44" stroke="black" />
<line x1="33" y1="-44" x2="106" y2="-44" stroke="black" />
<line x1="139" y1="641" x2="209" y2="641" stroke="black" />
<line x1="209" y1="641" x2="209" y2="952" stroke="black" />
<line x1="209" y1="952" x2="139" y2="952" stroke="black" />
<line x1="139" y1="952" x2="139" y2="641" stroke="black" />
<line x1="242" y1="641" x2="312" y2="641" stroke="black" />
<line x1="312" y1="641" x2="312" y2="952" stroke="black" />
<line x1="312" y1="952" x2="242" y2="952" stroke="black" />
<line x1="242" y1="952" x2="242" y2="641" stroke="black" />
<line x1="139" y1="298" x2="209" y2="298" stroke="black" />
<line x1="209" y1="298" x2="209" y2="608" stroke="black" />
<line x1="209" y1="608" x2="139" y2="608" stroke="black" />
<line x1="139" y1="608" x2="139" y2="298" stroke="black" />
<line x1="242" y1="298" x2="312" y2="298" stroke="black" />
<line x1="312" y1="298" x2="312" y2="608" stroke="black" />
<line x1="312" y1="608" x2="242" y2="608" stroke="black" />
<line x1="242" y1="608" x2="242" y2="298" stroke="black" />
<line x1="139" y1="-44" x2="209" y2="-44" stroke="black" />
<line x1="209" y1="-44" x2="209" y2="265" stroke="black" />
<line x1="209" y1="265" x2="139" y2="265" stroke="black" />
<line x1="139" y1="265" x2="139" y2="-44" stroke="black" />
<line x1="312" y1="-44" x2="312" y2="265" stroke="black" />
<line x1="312" y1="265" x2="242" y2="265" stroke="black" />
<line x1="242" y1="265" x2="242" y2="-44" stroke="black" />
<line x1="242" y1="-44" x2="312" y2="-44" stroke="black" />
</svg>