<svg xmlns="http://www.w3.org/2000/svg" viewBox="-198 23 1312 830">
<line x1="-198" y1="23" x2="-198" y2="853" stroke="black" />
<line x1="-198" y1="853" x2="-165" y2="853" stroke="black" />
<line x1="-165" y1="853" x2="-165" y2="23" stroke="black" />
<line x1="-165" y1="23" x2="-198" y2="23" stroke="black" />
<line x1="1081" y1="23" x2="1081" y2="853" stroke="black" />
<line x1="1081" y1="853" x2="1114" y2="853" stroke="black" />
<line x1="1114" y1="853" x2="1114" y2="23" stroke="black" />
<line x1="1114" y1="23" x2="1081" y2="23" stroke="black" />
<line x1="-132" y1="23" x2="-132" y2="853" stroke="black" />
<line x1="-132" y1="853" x2="-99" y2="853" stroke="black" />
<line x1="-99" y1="853" x2="-99" y2="23" stroke="black" />
<line x1="-99" y1="23" x2="-132" y2="23" stroke="black" />
<line x1="1015" y1="23" x2="1015" y2="853" stroke="black" />
<line x1="1015" y1="853" x2="1048" y2="853" stroke="black" />
<line x1="1048" y1="853" x2="1048" y2="23" stroke="black" />
<line x1="1048" y1="23" x2="1015" y2="23" stroke="black" />
</svg>