<svg xmlns="http://www.w3.org/2000/svg" viewBox="-394 23 1312 830">
<line x1="-394" y1="23" x2="-394" y2="853" stroke="black" />
<line x1="-394" y1="853" x2="-361" y2="853" stroke="black" />
<line x1="-361" y1="853" x2="-361" y2="23" stroke="black" />
<line x1="-361" y1="23" x2="-394" y2="23" stroke="black" />
<line x1="885" y1="23" x2="885" y2="853" stroke="black" />
<line x1="885" y1="853" x2="918" y2="853" stroke="black" />
<line x1="918" y1="853" x2="918" y2="23" stroke="black" />
<line x1="918" y1="23" x2="885" y2="23" stroke="black" />
<line x1="-315" y1="23" x2="-315" y2="66" stroke="black" />
<line x1="-315" y1="66" x2="-340" y2="66" stroke="black" />
<line x1="-340" y1="66" x2="-340" y2="145" stroke="black" />
<line x1="-340" y1="145" x2="-315" y2="145" stroke="black" />
<line x1="-315" y1="145" x2="-315" y2="199" stroke="black" />
<line x1="-315" y1="199" x2="-340" y2="199" stroke="black" />
<line x1="-340" y1="199" x2="-340" y2="278" stroke="black" />
<line x1="-340" y1="278" x2="-315" y2="278" stroke="black" />
<line x1="-315" y1="278" x2="-315" y2="332" stroke="black" />
<line x1="-315" y1="332" x2="-340" y2="332" stroke="black" />
<line x1="-340" y1="332" x2="-340" y2="411" stroke="black" />
<line x1="-340" y1="411" x2="-315" y2="411" stroke="black" />
<line x1="-315" y1="411" x2="-315" y2="465" stroke="black" />
<line x1="-315" y1="465" x2="-340" y2="465" stroke="black" />
<line x1="-340" y1="465" x2="-340" y2="544" stroke="black" />
<line x1="-340" y1="544" x2="-315" y2="544" stroke="black" />
<line x1="-315" y1="544" x2="-315" y2="598" stroke="black" />
<line x1="-315" y1="598" x2="-340" y2="598" stroke="black" />
<line x1="-340" y1="598" x2="-340" y2="677" stroke="black" />
<line x1="-340" y1="677" x2="-315" y2="677" stroke="black" />
<line x1="-315" y1="677" x2="-315" y2="731" stroke="black" />
<line x1="-315" y1="731" x2="-340" y2="731" stroke="black" />
<line x1="-340" y1="731" x2="-340" y2="810" stroke="black" />
<line x1="-340" y1="810" x2="-315" y2="810" stroke="black" />
<line x1="-315" y1="810" x2="-315" y2="853" stroke="black" />
<line x1="-315" y1="853" x2="-295" y2="853" stroke="black" />
<line x1="-295" y1="853" x2="-295" y2="23" stroke="black" />
<line x1="-295" y1="23" x2="-315" y2="23" stroke="black" />
<line x1="839" y1="23" x2="819" y2="23" stroke="black" />
<line x1="819" y1="23" x2="819" y2="853" stroke="black" />
<line x1="819" y1="853" x2="839" y2="853" stroke="black" />
<line x1="839" y1="853" x2="839" y2="810" stroke="black" />
<line x1="839" y1="810" x2="864" y2="810" stroke="black" />
<line x1="864" y1="810" x2="864" y2="731" stroke="black" />
<line x1="864" y1="731" x2="839" y2="731" stroke="black" />
<line x1="839" y1="731" x2="839" y2="677" stroke="black" />
<line x1="839" y1="677" x2="864" y2="677" stroke="black" />
<line x1="864" y1="677" x2="864" y2="598" stroke="black" />
<line x1="864" y1="598" x2="839" y2="598" stroke="black" />
<line x1="839" y1="598" x2="839" y2="544" stroke="black" />
<line x1="839" y1="544" x2="864" y2="544" stroke="black" />
<line x1="864" y1="544" x2="864" y2="465" stroke="black" />
<line x1="864" y1="465" x2="839" y2="465" stroke="black" />
<line x1="839" y1="465" x2="839" y2="411" stroke="black" />
<line x1="839" y1="411" x2="864" y2="411" stroke="black" />
<line x1="864" y1="411" x2="864" y2="332" stroke="black" />
<line x1="864" y1="332" x2="839" y2="332" stroke="black" />
<line x1="839" y1="332" x2="839" y2="278" stroke="black" />
<line x1="839" y1="278" x2="864" y2="278" stroke="black" />
<line x1="864" y1="278" x2="864" y2="199" stroke="black" />
<line x1="864" y1="199" x2="839" y2="199" stroke="black" />
<line x1="839" y1="199" x2="839" y2="145" stroke="black" />
<line x1="839" y1="145" x2="864" y2="145" stroke="black" />
<line x1="864" y1="145" x2="864" y2="66" stroke="black" />
<line x1="864" y1="66" x2="839" y2="66" stroke="black" />
<line x1="839" y1="66" x2="839" y2="23" stroke="black" />
</svg>