<svg xmlns="http://www.w3.org/2000/svg" viewBox="-132 23 1312 830">
<line x1="-132" y1="23" x2="-132" y2="853" stroke="black" />
<line x1="-132" y1="853" x2="-99" y2="853" stroke="black" />
<line x1="-99" y1="853" x2="-99" y2="23" stroke="black" />
<line x1="-99" y1="23" x2="-132" y2="23" stroke="black" />
<line x1="1147" y1="23" x2="1147" y2="853" stroke="black" />
<line x1="1147" y1="853" x2="1180" y2="853" stroke="black" />
<line x1="1180" y1="853" x2="1180" y2="23" stroke="black" />
<line x1="1180" y1="23" x2="1147" y2="23" stroke="black" />
<line x1="-53" y1="23" x2="-53" y2="66" stroke="black" />
<line x1="-53" y1="66" x2="-78" y2="66" stroke="black" />
<line x1="-78" y1="66" x2="-78" y2="145" stroke="black" />
<line x1="-78" y1="145" x2="-53" y2="145" stroke="black" />
<line x1="-53" y1="145" x2="-53" y2="199" stroke="black" />
<line x1="-53" y1="199" x2="-78" y2="199" stroke="black" />
<line x1="-78" y1="199" x2="-78" y2="278" stroke="black" />
<line x1="-78" y1="278" x2="-53" y2="278" stroke="black" />
<line x1="-53" y1="278" x2="-53" y2="332" stroke="black" />
<line x1="-53" y1="332" x2="-78" y2="332" stroke="black" />
<line x1="-78" y1="332" x2="-78" y2="411" stroke="black" />
<line x1="-78" y1="411" x2="-53" y2="411" stroke="black" />
<line x1="-53" y1="411" x2="-53" y2="465" stroke="black" />
<line x1="-53" y1="465" x2="-78" y2="465" stroke="black" />
<line x1="-78" y1="465" x2="-78" y2="544" stroke="black" />
<line x1="-78" y1="544" x2="-53" y2="544" stroke="black" />
<line x1="-53" y1="544" x2="-53" y2="598" stroke="black" />
<line x1="-53" y1="598" x2="-78" y2="598" stroke="black" />
<line x1="-78" y1="598" x2="-78" y2="677" stroke="black" />
<line x1="-78" y1="677" x2="-53" y2="677" stroke="black" />
<line x1="-53" y1="677" x2="-53" y2="731" stroke="black" />
<line x1="-53" y1="731" x2="-78" y2="731" stroke="black" />
<line x1="-78" y1="731" x2="-78" y2="810" stroke="black" />
<line x1="-78" y1="810" x2="-53" y2="810" stroke="black" />
<line x1="-53" y1="810" x2="-53" y2="853" stroke="black" />
<line x1="-53" y1="853" x2="-33" y2="853" stroke="black" />
<line x1="-33" y1="853" x2="-33" y2="23" stroke="black" />
<line x1="-33" y1="23" x2="-53" y2="23" stroke="black" />
<line x1="1101" y1="23" x2="1081" y2="23" stroke="black" />
<line x1="1081" y1="23" x2="1081" y2="853" stroke="black" />
<line x1="1081" y1="853" x2="1101" y2="853" stroke="black" />
<line x1="1101" y1="853" x2="1101" y2="810" stroke="black" />
<line x1="1101" y1="810" x2="1126" y2="810" stroke="black" />
<line x1="1126" y1="810" x2="1126" y2="731" stroke="black" />
<line x1="1126" y1="731" x2="1101" y2="731" stroke="black" />
<line x1="1101" y1="731" x2="1101" y2="677" stroke="black" />
<line x1="1101" y1="677" x2="1126" y2="677" stroke="black" />
<line x1="1126" y1="677" x2="1126" y2="598" stroke="black" />
<line x1="1126" y1="598" x2="1101" y2="598" stroke="black" />
<line x1="1101" y1="598" x2="1101" y2="544" stroke="black" />
<line x1="1101" y1="544" x2="1126" y2="544" stroke="black" />
<line x1="1126" y1="544" x2="1126" y2="465" stroke="black" />
<line x1="1126" y1="465" x2="1101" y2="465" stroke="black" />
<line x1="1101" y1="465" x2="1101" y2="411" stroke="black" />
<line x1="1101" y1="411" x2="1126" y2="411" stroke="black" />
<line x1="1126" y1="411" x2="1126" y2="332" stroke="black" />
<line x1="1126" y1="332" x2="1101" y2="332" stroke="black" />
<line x1="1101" y1="332" x2="1101" y2="278" stroke="black" />
<line x1="1101" y1="278" x2="1126" y2="278" stroke="black" />
<line x1="1126" y1="278" x2="1126" y2="199" stroke="black" />
<line x1="1126" y1="199" x2="1101" y2="199" stroke="black" />
<line x1="1101" y1="199" x2="1101" y2="145" stroke="black" />
<line x1="1101" y1="145" x2="1126" y2="145" stroke="black" />
<line x1="1126" y1="145" x2="1126" y2="66" stroke="black" />
<line x1="1126" y1="66" x2="1101" y2="66" stroke="black" />
<line x1="1101" y1="66" x2="1101" y2="23" stroke="black" />
</svg>